<svg width="1914" height="1565" viewBox="0 0 1914 1565" fill="none" xmlns="http://www.w3.org/2000/svg">
<path fill-rule="evenodd" clip-rule="evenodd" d="M306.5 1.20107C352.558 4.05114 383.226 47.5823 425 67.1864C475.403 90.8398 537.797 88.4494 576.891 128.092C622.554 174.396 683.68 242.831 656.456 301.891C626.018 367.924 514.406 336.618 459.043 383.755C416.915 419.623 430.384 494.261 388.31 530.194C337.06 573.966 262.647 634.457 203.639 601.89C139.099 566.271 182.153 455.958 141.901 394.202C110.306 345.729 19.1148 350.879 3.68159 295.114C-11.3281 240.88 40.0973 190.617 72.9036 144.895C100.764 106.068 137.481 76.9521 178.185 51.9134C218.168 27.3185 259.648 -1.69817 306.5 1.20107Z" stroke="white" stroke-opacity="0.2"/>
<path fill-rule="evenodd" clip-rule="evenodd" d="M312.674 48.1518C347.451 50.3038 370.607 83.1729 402.15 97.9754C440.207 115.835 487.319 114.03 516.838 143.963C551.317 178.926 597.471 230.6 576.915 275.194C553.932 325.053 469.657 301.415 427.854 337.006C396.044 364.09 406.214 420.446 374.446 447.578C335.749 480.629 279.562 526.304 235.006 501.714C186.274 474.819 218.783 391.525 188.39 344.895C164.533 308.294 95.6779 312.183 84.0248 270.077C72.6914 229.126 111.521 191.174 136.292 156.651C157.329 127.333 185.053 105.349 215.787 86.4431C245.977 67.8723 277.298 45.9627 312.674 48.1518Z" stroke="white" stroke-opacity="0.2"/>
<path fill-rule="evenodd" clip-rule="evenodd" d="M316.539 94.1215C344.36 95.8431 362.886 122.138 388.12 133.98C418.566 148.268 456.255 146.824 479.87 170.771C507.453 198.741 544.377 240.08 527.932 275.755C509.546 315.643 442.125 296.732 408.684 325.205C383.236 346.872 391.372 391.957 365.957 413.663C334.999 440.103 290.049 476.643 254.405 456.971C215.419 435.455 241.427 368.82 217.112 331.516C198.027 302.235 142.942 305.346 133.62 271.661C124.553 238.901 155.617 208.539 175.434 180.921C192.263 157.467 214.442 139.879 239.03 124.754C263.182 109.898 288.238 92.3702 316.539 94.1215Z" stroke="white" stroke-opacity="0.2"/>
<path fill-rule="evenodd" clip-rule="evenodd" d="M324.27 186.061C338.18 186.922 347.443 200.069 360.06 205.99C375.283 213.134 394.128 212.412 405.935 224.385C419.727 238.371 438.188 259.04 429.966 276.878C420.773 296.821 387.063 287.366 370.342 301.602C357.618 312.436 361.686 334.978 348.978 345.831C333.499 359.052 311.025 377.321 293.203 367.486C273.71 356.728 286.713 323.41 274.556 304.758C265.013 290.118 237.471 291.673 232.81 274.831C228.277 258.45 243.808 243.269 253.717 229.46C262.131 217.733 273.221 208.94 285.515 201.377C297.591 193.949 310.119 185.185 324.27 186.061Z" stroke="white" stroke-opacity="0.2"/>
<path fill-rule="evenodd" clip-rule="evenodd" d="M1441.58 742.03C1431.18 680.856 1480.37 626.86 1493.87 565.953C1510.16 492.466 1487.64 411.584 1528.98 347.801C1577.27 273.3 1650.6 171.516 1738.62 188.325C1837.04 207.118 1829.36 363.137 1910.01 420.563C1971.39 464.263 2067.82 422.863 2129.26 466.469C2204.11 519.587 2308.65 597.687 2283 685.274C2254.96 781.071 2092.96 759.875 2022.18 832.219C1966.61 889.002 2001.76 1006.69 1931.37 1044.64C1862.92 1081.56 1779.27 1030.28 1707.5 1001.92C1646.55 977.833 1595.95 939.063 1549.62 893.777C1504.1 849.294 1452.17 804.26 1441.58 742.03Z" stroke="white" stroke-opacity="0.2"/>
<path fill-rule="evenodd" clip-rule="evenodd" d="M1502.95 718.996C1495.1 672.805 1532.24 632.034 1542.43 586.045C1554.74 530.557 1537.73 469.486 1568.95 421.325C1605.41 365.071 1660.78 288.218 1727.24 300.91C1801.55 315.1 1795.75 432.905 1856.65 476.266C1902.99 509.262 1975.8 478.002 2022.2 510.928C2078.71 551.035 2157.65 610.006 2138.29 676.141C2117.11 748.474 1994.79 732.47 1941.34 787.094C1899.39 829.97 1925.92 918.829 1872.78 947.49C1821.09 975.365 1757.93 936.646 1703.74 915.23C1657.72 897.043 1619.51 867.769 1584.53 833.575C1550.16 799.987 1510.94 765.983 1502.95 718.996Z" stroke="white" stroke-opacity="0.2"/>
<path fill-rule="evenodd" clip-rule="evenodd" d="M1563.72 699.294C1557.43 662.342 1587.14 629.725 1595.3 592.934C1605.14 548.543 1591.54 499.686 1616.51 461.158C1645.68 416.155 1689.98 354.672 1743.15 364.825C1802.59 376.178 1797.96 470.421 1846.67 505.11C1883.75 531.507 1942 506.499 1979.11 532.84C2024.32 564.926 2087.47 612.103 2071.98 665.01C2055.04 722.877 1957.19 710.074 1914.43 753.773C1880.86 788.073 1902.09 859.161 1859.58 882.09C1818.22 904.39 1767.7 873.414 1724.34 856.282C1687.53 841.732 1656.96 818.313 1628.97 790.958C1601.48 764.087 1570.11 736.884 1563.72 699.294Z" stroke="white" stroke-opacity="0.2"/>
<path fill-rule="evenodd" clip-rule="evenodd" d="M1685.24 659.891C1682.1 641.415 1696.96 625.107 1701.03 606.711C1705.95 584.516 1699.15 560.087 1711.64 540.823C1726.22 518.322 1748.37 487.58 1774.96 492.657C1804.68 498.333 1802.36 545.455 1826.72 562.799C1845.26 575.998 1874.38 563.494 1892.94 576.664C1915.54 592.707 1947.12 616.296 1939.37 642.75C1930.9 671.683 1881.98 665.281 1860.6 687.131C1843.82 704.281 1854.43 739.825 1833.17 751.289C1812.5 762.439 1787.23 746.951 1765.56 738.385C1747.15 731.11 1731.87 719.401 1717.87 705.723C1704.12 692.288 1688.44 678.687 1685.24 659.891Z" stroke="white" stroke-opacity="0.2"/>
<path fill-rule="evenodd" clip-rule="evenodd" d="M563.585 1289.16C490.154 1258.92 455.446 1167.48 441.555 1089.29C428.329 1014.85 463.349 942.507 489.387 871.525C512.008 809.854 527.716 736.867 583.532 702.231C638.878 667.888 711.71 707.51 775.435 694.024C828.118 682.874 867.935 639.35 921.101 630.789C989.04 619.85 1067.34 598.716 1123.9 637.916C1179.88 676.715 1171.4 761.96 1199.72 823.902C1231.45 893.316 1324.08 952.264 1300.86 1024.97C1276.52 1101.18 1147.11 1081.66 1097.37 1144.33C1044.24 1211.28 1097.9 1356.59 1016.64 1383.1C934.435 1409.91 890.688 1256.93 806.022 1239.37C723.841 1222.33 641.191 1321.12 563.585 1289.16Z" stroke="white" stroke-opacity="0.2"/>
<path fill-rule="evenodd" clip-rule="evenodd" d="M610.621 1238.96C548.854 1213.52 519.66 1136.6 507.975 1070.83C496.85 1008.22 526.308 947.366 548.209 887.659C567.237 835.785 580.45 774.392 627.4 745.258C673.954 716.369 735.217 749.698 788.819 738.354C833.134 728.975 866.626 692.365 911.347 685.164C968.493 675.962 1034.36 658.185 1081.93 691.158C1129.02 723.794 1121.88 795.498 1145.71 847.601C1172.4 905.989 1250.32 955.573 1230.78 1016.73C1210.31 1080.83 1101.45 1064.42 1059.62 1117.13C1014.92 1173.44 1060.06 1295.67 991.708 1317.97C922.562 1340.53 885.765 1211.84 814.547 1197.08C745.421 1182.74 675.9 1265.84 610.621 1238.96Z" stroke="white" stroke-opacity="0.2"/>
<path fill-rule="evenodd" clip-rule="evenodd" d="M684.129 1161.29C640.893 1143.49 620.456 1089.64 612.277 1043.61C604.49 999.776 625.11 957.18 640.441 915.385C653.761 879.073 663.009 836.098 695.874 815.704C728.462 795.482 771.347 818.812 808.868 810.871C839.888 804.306 863.333 778.679 894.637 773.638C934.64 767.197 980.746 754.753 1014.05 777.835C1047.01 800.68 1042.01 850.873 1058.69 887.345C1077.38 928.216 1131.92 962.925 1118.24 1005.73C1103.91 1050.61 1027.71 1039.12 998.428 1076.01C967.142 1115.43 998.736 1200.99 950.89 1216.6C902.488 1232.39 876.73 1142.31 826.878 1131.98C778.489 1121.94 729.825 1180.11 684.129 1161.29Z" stroke="white" stroke-opacity="0.2"/>
<path fill-rule="evenodd" clip-rule="evenodd" d="M782.716 1057.07C764.186 1049.44 755.428 1026.37 751.922 1006.64C748.585 987.851 757.422 969.596 763.992 951.684C769.701 936.122 773.665 917.704 787.75 908.964C801.716 900.297 820.095 910.296 836.175 906.892C849.47 904.079 859.518 893.096 872.934 890.935C890.078 888.175 909.837 882.842 924.109 892.734C938.235 902.525 936.095 924.036 943.241 939.667C951.25 957.183 974.624 972.058 968.764 990.405C962.622 1009.64 929.965 1004.71 917.415 1020.52C904.007 1037.42 917.547 1074.09 897.042 1080.78C876.298 1087.54 865.259 1048.94 843.894 1044.51C823.156 1040.21 802.3 1065.14 782.716 1057.07Z" stroke="white" stroke-opacity="0.2"/>
</svg>

