<svg width="796" height="709" viewBox="0 0 796 709" fill="none" xmlns="http://www.w3.org/2000/svg">
<path fill-rule="evenodd" clip-rule="evenodd" d="M9.18018 346.935L9.35471 344.578L9.53483 342.225L9.72157 339.875L9.91596 337.529L10.1188 335.184L10.3308 332.842L10.5525 330.5L10.7841 328.159L11.025 325.818L11.2738 323.475L11.5281 321.13L11.785 318.782L12.0411 316.429L12.2923 314.068L12.5345 311.697L12.7633 309.315L12.9743 306.917L13.1631 304.501L13.3255 302.062L13.4574 299.598L13.5555 297.104L13.6164 294.575L13.6377 292.009L13.6175 289.399L13.5543 286.743L13.4478 284.036L13.2981 281.274L13.1062 278.452L12.8742 275.569L12.6046 272.62L12.3007 269.604L11.9665 266.516L11.6064 263.357L11.2253 260.123L10.8287 256.815L10.4227 253.432L10.0135 249.973L9.60797 246.44L9.21326 242.833L8.83673 239.155L8.48608 235.408L8.16919 231.595L7.89398 227.72L7.66852 223.787L7.50088 219.802L7.39905 215.769L7.37088 211.695L7.42413 207.587L7.56625 203.452L7.80441 199.297L8.1455 195.13L8.59591 190.961L9.16168 186.798L9.84829 182.65L10.6607 178.527L11.6033 174.437L12.6799 170.392L13.8937 166.4L15.2471 162.472L16.742 158.617L18.3794 154.844L20.16 151.163L22.0833 147.583L24.1484 144.113L26.3538 140.761L28.697 137.535L31.1752 134.442L33.7847 131.489L36.5215 128.683L39.3807 126.029L42.3572 123.532L45.4451 121.195L48.6385 119.023L51.9306 117.018L55.3147 115.182L58.7836 113.516L62.3299 112.02L65.9461 110.693L69.6243 109.533L73.3563 108.536L77.1338 107.698L80.9485 107.012L84.7923 106.47L88.6573 106.064L92.536 105.785L96.4213 105.622L100.307 105.564L104.186 105.6L108.055 105.718L111.908 105.907L115.742 106.155L119.553 106.45L123.339 106.781L127.1 107.137L130.833 107.508L134.539 107.884L138.219 108.258L141.873 108.621L145.504 108.968L149.112 109.293L152.702 109.593L156.274 109.865L159.833 110.105L163.381 110.313L166.921 110.487L170.456 110.628L173.99 110.737L177.525 110.815L181.064 110.865L184.61 110.89L188.165 110.894L191.731 110.881L195.311 110.855L198.904 110.824L202.514 110.791L206.14 110.765L209.782 110.75L213.441 110.754L217.117 110.784L220.807 110.846L224.511 110.948L228.227 111.097L231.952 111.299L235.686 111.561L239.423 111.889L243.162 112.29L246.898 112.769L250.629 113.331L254.35 113.982L258.057 114.725L261.745 115.565L265.411 116.506L269.05 117.549L272.657 118.699L276.229 119.955L279.76 121.321L283.246 122.796L286.683 124.38L290.067 126.074L293.394 127.877L296.661 129.787L299.864 131.802L303 133.921L306.065 136.141L309.058 138.459L311.975 140.872L314.815 143.377L317.576 145.969L320.255 148.647L322.85 151.406L325.36 154.245L327.78 157.161L330.108 160.152L332.341 163.217L334.476 166.354L336.509 169.56L338.436 172.835L340.254 176.176L341.959 179.581L343.549 183.049L345.019 186.575L346.366 190.159L347.587 193.797L348.679 197.485L349.641 201.221L350.469 205L351.163 208.818L351.721 212.67L352.143 216.552L352.428 220.459L352.578 224.384L352.593 228.323L352.476 232.27L352.229 236.219L351.854 240.164L351.356 244.099L350.738 248.019L350.005 251.918L349.162 255.789L348.215 259.629L347.171 263.43L346.035 267.188L344.816 270.899L343.522 274.557L342.159 278.159L340.737 281.701L339.265 285.179L337.75 288.59L336.203 291.932L334.633 295.203L333.049 298.401L331.46 301.525L329.876 304.575L328.307 307.551L326.76 310.453L325.245 313.282L323.771 316.04L322.346 318.73L320.978 321.352L319.673 323.911L318.44 326.411L317.284 328.853L316.211 331.244L315.226 333.587L314.333 335.888L313.537 338.151L312.841 340.382L312.246 342.586L311.754 344.768L311.366 346.935L311.081 349.092L310.9 351.244L310.819 353.398L310.837 355.557L310.95 357.729L311.155 359.916L311.446 362.125L311.818 364.36L312.265 366.623L312.778 368.92L313.35 371.251L313.969 373.62L314.626 376.028L315.308 378.476L316.005 380.963L316.704 383.488L317.394 386.05L318.06 388.647L318.692 391.275L319.276 393.931L319.802 396.609L320.258 399.306L320.634 402.016L320.919 404.732L321.105 407.448L321.184 410.158L321.149 412.855L320.995 415.533L320.716 418.185L320.31 420.803L319.775 423.383L319.109 425.918L318.313 428.403L317.388 430.831L316.334 433.199L315.156 435.502L313.857 437.736L312.442 439.897L310.915 441.984L309.282 443.995L307.551 445.929L305.728 447.784L303.821 449.563L301.838 451.265L299.788 452.893L297.678 454.449L295.518 455.938L293.315 457.363L291.08 458.728L288.819 460.04L286.542 461.305L284.256 462.528L281.969 463.717L279.687 464.879L277.418 466.022L275.167 467.154L272.939 468.282L270.739 469.415L268.571 470.561L266.439 471.727L264.344 472.921L262.289 474.152L260.275 475.425L258.3 476.748L256.366 478.127L254.471 479.568L252.613 481.075L250.789 482.653L248.996 484.305L247.23 486.035L245.488 487.843L243.763 489.732L242.053 491.702L240.349 493.751L238.649 495.879L236.944 498.083L235.23 500.359L233.5 502.705L231.749 505.115L229.971 507.585L228.162 510.111L226.316 512.689L224.429 515.314L222.497 517.98L220.515 520.684L218.481 523.42L216.39 526.183L214.24 528.967L212.027 531.767L209.749 534.578L207.404 537.393L204.989 540.206L202.504 543.011L199.945 545.803L197.313 548.574L194.607 551.319L191.825 554.03L188.968 556.702L186.037 559.328L183.03 561.9L179.95 564.413L176.798 566.859L173.574 569.233L170.281 571.526L166.921 573.733L163.496 575.847L160.01 577.86L156.465 579.768L152.864 581.563L149.212 583.24L145.514 584.792L141.772 586.215L137.992 587.503L134.178 588.651L130.337 589.656L126.472 590.512L122.591 591.217L118.697 591.766L114.797 592.158L110.897 592.391L107.003 592.462L103.121 592.37L99.2558 592.115L95.4143 591.696L91.602 591.114L87.8246 590.369L84.0878 589.463L80.397 588.398L76.7573 587.176L73.1739 585.799L69.6515 584.272L66.1946 582.596L62.8076 580.778L59.4945 578.82L56.2588 576.728L53.104 574.506L50.033 572.16L47.0486 569.696L44.1529 567.118L41.348 564.434L38.6355 561.649L36.0167 558.769L33.4923 555.801L31.063 552.751L28.729 549.626L26.4901 546.431L24.3459 543.173L22.2956 539.859L20.3386 536.493L18.4745 533.081L16.7026 529.628L15.0229 526.138L13.4349 522.614L11.9388 519.06L10.5343 515.48L9.22131 511.876L7.99978 508.252L6.86953 504.61L5.83022 500.954L4.88143 497.286L4.02257 493.61L3.25268 489.928L2.57067 486.244L1.975 482.561L1.46383 478.883L1.03484 475.213L0.685353 471.554L0.412068 467.911L0.211262 464.287L0.0786323 460.686L0.00975379 457.112L1.83751e-05 453.568L0.0447568 450.058L0.139269 446.583L0.278796 443.146L0.458635 439.75L0.67412 436.396L0.92061 433.087L1.19362 429.822L1.48882 426.603L1.80196 423.431L2.1291 420.305L2.46642 417.226L2.81035 414.194L3.15767 411.208L3.50532 408.266L3.8506 405.369L4.19108 402.514L4.52464 399.701L4.84953 396.928L5.16423 394.192L5.46757 391.494L5.75871 388.829L6.03706 386.197L6.30238 383.595L6.55461 381.022L6.79405 378.475L7.02116 375.953L7.23661 373.453L7.44136 370.973L7.63642 368.512L7.82301 366.067L8.00245 363.638L8.1761 361.222L8.3455 358.819L8.51206 356.426L8.67735 354.042L8.84284 351.666L9.00999 349.298L9.18018 346.935Z" fill="#6E29FF"/>
<path fill-rule="evenodd" clip-rule="evenodd" d="M172.426 489.023L173.16 485.591L174.055 482.178L175.111 478.79L176.325 475.432L177.692 472.107L179.21 468.821L180.874 465.576L182.68 462.378L184.622 459.23L186.694 456.134L188.891 453.095L191.206 450.115L193.631 447.196L196.16 444.341L198.787 441.552L201.503 438.83L204.303 436.176L207.179 433.592L210.126 431.078L213.137 428.636L216.206 426.265L219.326 423.966L222.491 421.738L225.696 419.582L228.933 417.497L232.198 415.481L235.485 413.535L238.788 411.656L242.101 409.844L245.42 408.096L248.739 406.412L252.054 404.79L255.36 403.226L258.653 401.721L261.929 400.27L265.184 398.872L268.413 397.524L271.613 396.224L274.781 394.969L277.913 393.755L281.005 392.581L284.055 391.442L287.058 390.335L290.013 389.257L292.916 388.204L295.764 387.172L298.556 386.158L301.289 385.159L303.96 384.169L306.569 383.186L309.114 382.205L311.592 381.223L314.004 380.234L316.347 379.237L318.622 378.225L320.827 377.196L322.963 376.146L325.03 375.07L327.027 373.965L328.955 372.827L330.814 371.653L332.607 370.439L334.333 369.182L335.994 367.877L337.593 366.524L339.13 365.118L340.608 363.656L342.029 362.137L343.397 360.558L344.712 358.916L345.979 357.211L347.2 355.44L348.379 353.602L349.52 351.696L350.624 349.721L351.697 347.676L352.742 345.561L353.763 343.376L354.764 341.12L355.748 338.795L356.72 336.4L357.683 333.936L358.642 331.405L359.6 328.807L360.562 326.145L361.532 323.419L362.513 320.632L363.51 317.785L364.525 314.881L365.563 311.923L366.628 308.912L367.723 305.852L368.851 302.746L370.017 299.597L371.222 296.409L372.471 293.184L373.765 289.926L375.109 286.639L376.504 283.327L377.954 279.994L379.459 276.643L381.024 273.28L382.649 269.907L384.337 266.528L386.088 263.147L387.903 259.767L389.785 256.39L391.732 253.018L393.746 249.654L395.827 246.299L397.976 242.955L400.193 239.625L402.477 236.31L404.83 233.012L407.25 229.732L409.739 226.473L412.297 223.238L414.923 220.029L417.618 216.848L420.381 213.7L423.213 210.587L426.113 207.514L429.08 204.485L432.116 201.505L435.219 198.578L438.388 195.711L441.622 192.906L444.921 190.17L448.283 187.507L451.706 184.921L455.188 182.417L458.729 179.999L462.325 177.673L465.975 175.441L469.676 173.308L473.426 171.278L477.222 169.355L481.06 167.541L484.939 165.841L488.855 164.256L492.805 162.791L496.785 161.448L500.793 160.228L504.824 159.135L508.876 158.169L512.944 157.332L517.025 156.626L521.116 156.051L525.213 155.609L529.312 155.299L533.41 155.122L537.504 155.077L541.589 155.163L545.662 155.381L549.721 155.73L553.761 156.206L557.78 156.81L561.775 157.54L565.742 158.392L569.68 159.366L573.585 160.458L577.455 161.665L581.288 162.986L585.081 164.416L588.833 165.953L592.541 167.593L596.205 169.334L599.822 171.17L603.392 173.1L606.912 175.119L610.382 177.224L613.801 179.411L617.169 181.677L620.484 184.018L623.745 186.431L626.954 188.912L630.108 191.459L633.208 194.067L636.254 196.735L639.246 199.458L642.183 202.234L645.066 205.059L647.894 207.932L650.668 210.85L653.388 213.81L656.054 216.809L658.665 219.847L661.223 222.92L663.728 226.027L666.178 229.166L668.576 232.336L670.919 235.534L673.21 238.759L675.448 242.008L677.636 245.279L679.773 248.57L681.863 251.877L683.907 255.198L685.907 258.53L687.866 261.869L689.786 265.212L691.672 268.557L693.525 271.9L695.35 275.239L697.15 278.571L698.929 281.893L700.69 285.203L702.438 288.499L704.176 291.778L705.909 295.039L707.642 298.279L709.378 301.497L711.122 304.692L712.878 307.863L714.65 311.009L716.443 314.13L718.258 317.226L720.098 320.299L721.967 323.348L723.866 326.377L725.797 329.385L727.761 332.376L729.757 335.351L731.787 338.314L733.85 341.267L735.945 344.212L738.07 347.154L740.223 350.096L742.402 353.04L744.604 355.99L746.826 358.95L749.063 361.923L751.312 364.911L753.568 367.919L755.825 370.949L758.079 374.004L760.324 377.088L762.555 380.201L764.764 383.348L766.947 386.529L769.095 389.747L771.204 393.003L773.267 396.299L775.276 399.635L777.225 403.012L779.107 406.43L780.917 409.889L782.647 413.39L784.291 416.93L785.843 420.511L787.297 424.129L788.647 427.784L789.889 431.473L791.016 435.196L792.025 438.948L792.911 442.728L793.67 446.533L794.299 450.359L794.794 454.203L795.153 458.063L795.373 461.933L795.454 465.811L795.394 469.693L795.192 473.575L794.848 477.453L794.363 481.323L793.736 485.181L792.97 489.023L792.066 492.846L791.025 496.645L789.851 500.418L788.546 504.16L787.114 507.867L785.557 511.538L783.88 515.168L782.087 518.755L780.182 522.296L778.17 525.788L776.057 529.23L773.846 532.619L771.545 535.953L769.157 539.231L766.689 542.451L764.147 545.613L761.537 548.715L758.865 551.757L756.137 554.74L753.36 557.662L750.54 560.525L747.684 563.328L744.798 566.074L741.888 568.763L738.961 571.396L736.022 573.975L733.079 576.503L730.137 578.982L727.201 581.413L724.278 583.801L721.373 586.146L718.491 588.454L715.637 590.726L712.816 592.967L710.033 595.18L707.291 597.369L704.595 599.538L701.947 601.689L699.351 603.828L696.809 605.958L694.321 608.082L691.891 610.203L689.517 612.326L687.201 614.453L684.943 616.588L682.741 618.732L680.595 620.889L678.502 623.06L676.462 625.247L674.47 627.453L672.525 629.678L670.623 631.922L668.761 634.187L666.934 636.473L665.139 638.779L663.372 641.105L661.627 643.449L659.9 645.81L658.186 648.186L656.481 650.575L654.778 652.975L653.074 655.381L651.363 657.792L649.64 660.204L647.9 662.612L646.139 665.012L644.351 667.399L642.533 669.77L640.68 672.118L638.788 674.439L636.854 676.728L634.874 678.979L632.844 681.186L630.763 683.344L628.627 685.448L626.435 687.491L624.185 689.469L621.875 691.376L619.505 693.207L617.074 694.956L614.583 696.619L612.031 698.191L609.419 699.669L606.748 701.047L604.02 702.323L601.237 703.492L598.4 704.553L595.513 705.503L592.577 706.339L589.597 707.061L586.576 707.666L583.517 708.155L580.423 708.527L577.3 708.783L574.151 708.923L570.98 708.949L567.792 708.863L564.591 708.667L561.382 708.365L558.168 707.958L554.955 707.452L551.747 706.85L548.547 706.157L545.361 705.378L542.19 704.515L539.039 703.574L535.911 702.559L532.809 701.473L529.734 700.321L526.69 699.107L523.679 697.834L520.702 696.506L517.762 695.128L514.861 693.703L511.999 692.234L509.178 690.727L506.4 689.184L503.665 687.609L500.973 686.007L498.327 684.381L495.726 682.735L493.17 681.072L490.66 679.397L488.196 677.713L485.778 676.023L483.405 674.333L481.077 672.645L478.793 670.963L476.553 669.292L474.356 667.635L472.201 665.996L470.087 664.378L468.012 662.786L465.975 661.224L463.975 659.694L462.008 658.2L460.075 656.746L458.171 655.334L456.297 653.967L454.448 652.649L452.623 651.381L450.819 650.166L449.034 649.006L447.265 647.902L445.51 646.857L443.765 645.872L442.028 644.947L440.297 644.083L438.568 643.28L436.84 642.54L435.108 641.861L433.371 641.243L431.627 640.685L429.872 640.186L428.104 639.745L426.322 639.36L424.522 639.029L422.704 638.749L420.865 638.519L419.005 638.334L417.12 638.194L415.21 638.093L413.275 638.03L411.313 637.999L409.323 637.999L407.305 638.024L405.259 638.071L403.184 638.136L401.081 638.216L398.951 638.306L396.792 638.402L394.607 638.5L392.395 638.598L390.158 638.69L387.896 638.773L385.612 638.844L383.305 638.9L380.978 638.937L378.631 638.952L376.266 638.943L373.885 638.906L371.489 638.84L369.08 638.741L366.658 638.609L364.227 638.44L361.786 638.234L359.338 637.99L356.883 637.705L354.423 637.38L351.959 637.013L349.492 636.604L347.023 636.153L344.552 635.659L342.079 635.124L339.605 634.549L337.129 633.934L334.649 633.281L332.165 632.592L329.675 631.869L327.178 631.114L324.671 630.328L322.152 629.513L319.62 628.672L317.071 627.806L314.504 626.917L311.916 626.005L309.304 625.072L306.668 624.119L304.004 623.146L301.312 622.152L298.591 621.138L295.839 620.102L293.057 619.044L290.245 617.962L287.404 616.854L284.532 615.719L281.632 614.556L278.704 613.362L275.748 612.136L272.766 610.877L269.758 609.582L266.728 608.249L263.676 606.877L260.604 605.464L257.516 604.007L254.412 602.505L251.296 600.956L248.171 599.357L245.041 597.708L241.908 596.005L238.777 594.248L235.652 592.434L232.537 590.561L229.437 588.629L226.356 586.635L223.3 584.579L220.274 582.459L217.283 580.274L214.334 578.024L211.431 575.707L208.582 573.323L205.791 570.873L203.066 568.355L200.412 565.772L197.835 563.122L195.342 560.407L192.94 557.628L190.633 554.786L188.429 551.883L186.332 548.92L184.35 545.901L182.487 542.826L180.749 539.7L179.141 536.524L177.668 533.302L176.334 530.037L175.145 526.734L174.104 523.395L173.214 520.025L172.479 516.628L171.902 513.208L171.485 509.77L171.23 506.319L171.139 502.858L171.213 499.394L171.452 495.93L171.857 492.471L172.426 489.023Z" fill="#4E36E9"/>
<path fill-rule="evenodd" clip-rule="evenodd" d="M70.2887 187.397L70.9504 185.038L71.5046 182.693L71.9504 180.358L72.2878 178.027L72.5177 175.693L72.6422 173.353L72.664 171L72.5867 168.629L72.4148 166.237L72.1535 163.819L71.8087 161.37L71.3869 158.888L70.8952 156.368L70.3412 153.809L69.733 151.207L69.079 148.562L68.3879 145.872L67.6686 143.136L66.9301 140.354L66.1817 137.527L65.4323 134.655L64.6911 131.739L63.9669 128.78L63.2683 125.782L62.6035 122.747L61.9804 119.677L61.4065 116.575L60.8887 113.444L60.4332 110.289L60.0457 107.113L59.7312 103.919L59.4939 100.71L59.3373 97.4914L59.2649 94.2657L59.2795 91.037L59.3841 87.8091L59.581 84.5862L59.8726 81.3722L60.2607 78.1712L60.747 74.9875L61.333 71.8252L62.0196 68.6884L62.8077 65.5814L63.6978 62.5083L64.6903 59.4732L65.7851 56.4803L66.982 53.5335L68.2804 50.6368L69.6796 47.7941L71.1786 45.0091L72.776 42.2855L74.4705 39.6268L76.2602 37.0364L78.1433 34.5177L80.1176 32.0736L82.1809 29.7072L84.3304 27.4213L86.5637 25.2183L88.8776 23.1008L91.2694 21.0709L93.7356 19.1305L96.273 17.2815L98.8782 15.5254L101.548 13.8635L104.277 12.2969L107.064 10.8263L109.903 9.45233L112.791 8.17532L115.725 6.9953L118.699 5.91202L121.71 4.92496L124.753 4.03339L127.826 3.2362L130.923 2.53213L134.041 1.91949L137.175 1.39648L140.323 0.960874L143.479 0.610257L146.64 0.341947L149.803 0.152951L152.964 0.0400967L156.12 8.78698e-05L159.267 0.0296896L162.403 0.125606L165.525 0.284572L168.631 0.50323L171.718 0.778224L174.785 1.10613L177.829 1.48342L180.849 1.90655L183.843 2.37185L186.811 2.87557L189.749 3.4139L192.659 3.98299L195.539 4.57885L198.388 5.19753L201.206 5.83495L203.993 6.48708L206.748 7.14986L209.473 7.81924L212.167 8.49123L214.831 9.16192L217.466 9.82748L220.073 10.4842L222.652 11.1287L225.207 11.7575L227.737 12.3676L230.245 12.9562L232.732 13.5209L235.202 14.0596L237.655 14.5705L240.094 15.0523L242.521 15.5041L244.939 15.9253L247.349 16.3158L249.755 16.676L252.157 17.0065L254.559 17.3088L256.962 17.5843L259.368 17.8351L261.779 18.0636L264.196 18.2728L266.621 18.4658L269.055 18.6462L271.498 18.8178L273.951 18.9849L276.414 19.1518L278.887 19.3231L281.371 19.5038L283.864 19.6986L286.365 19.9127L288.874 20.1511L291.387 20.4189L293.905 20.7211L296.425 21.0628L298.943 21.4487L301.459 21.8834L303.968 22.3714L306.468 22.9169L308.955 23.5236L311.427 24.1952L313.879 24.9347L316.309 25.7449L318.713 26.6282L321.087 27.5862L323.428 28.6205L325.732 29.7319L327.997 30.9208L330.218 32.1871L332.395 33.5301L334.523 34.9487L336.6 36.4413L338.626 38.0059L340.597 39.6398L342.514 41.3401L344.374 43.1031L346.179 44.9246L347.929 46.7999L349.626 48.7237L351.271 50.6903L352.867 52.6939L354.418 54.7282L355.928 56.7869L357.401 58.8638L358.842 60.9525L360.258 63.0469L361.654 65.141L363.036 67.2293L364.412 69.3064L365.788 71.3676L367.171 73.4085L368.569 75.4256L369.989 77.4157L371.436 79.3764L372.919 81.3061L374.442 83.2038L376.011 85.0695L377.632 86.9037L379.308 88.7079L381.042 90.4843L382.838 92.2358L384.696 93.9655L386.618 95.6771L388.605 97.3745L390.656 99.0619L392.772 100.744L394.951 102.424L397.191 104.109L399.49 105.802L401.844 107.508L404.25 109.234L406.703 110.982L409.199 112.76L411.73 114.57L414.291 116.419L416.875 118.31L419.474 120.247L422.081 122.235L424.687 124.277L427.282 126.376L429.859 128.535L432.407 130.757L434.918 133.042L437.38 135.393L439.784 137.81L442.12 140.294L444.378 142.845L446.549 145.461L448.622 148.142L450.589 150.886L452.44 153.69L454.166 156.552L455.76 159.468L457.213 162.434L458.519 165.447L459.67 168.501L460.662 171.592L461.488 174.713L462.146 177.861L462.631 181.028L462.94 184.209L463.073 187.397L463.027 190.587L462.804 193.771L462.404 196.944L461.829 200.1L461.082 203.233L460.166 206.336L459.087 209.404L457.85 212.433L456.46 215.416L454.925 218.351L453.252 221.232L451.449 224.056L449.526 226.82L447.491 229.522L445.353 232.16L443.124 234.731L440.812 237.236L438.429 239.675L435.985 242.046L433.49 244.353L430.954 246.594L428.389 248.774L425.803 250.894L423.208 252.957L420.611 254.967L418.022 256.927L415.449 258.841L412.899 260.713L410.38 262.548L407.897 264.351L405.455 266.126L403.06 267.877L400.714 269.61L398.42 271.327L396.181 273.034L393.999 274.736L391.876 276.437L389.813 278.14L387.811 279.852L385.871 281.576L383.993 283.316L382.175 285.076L380.419 286.86L378.721 288.673L377.082 290.517L375.498 292.395L373.968 294.311L372.489 296.268L371.058 298.268L369.673 300.313L368.329 302.404L367.022 304.545L365.75 306.735L364.507 308.975L363.29 311.267L362.094 313.61L360.915 316.004L359.747 318.449L358.587 320.944L357.429 323.487L356.269 326.078L355.102 328.714L353.923 331.393L352.728 334.113L351.512 336.871L350.271 339.664L349 342.489L347.695 345.342L346.352 348.22L344.968 351.119L343.538 354.034L342.06 356.962L340.53 359.898L338.946 362.838L337.304 365.777L335.602 368.71L333.838 371.632L332.01 374.54L330.117 377.427L328.157 380.29L326.129 383.123L324.031 385.921L321.865 388.68L319.628 391.395L317.321 394.059L314.944 396.669L312.496 399.218L309.979 401.702L307.393 404.114L304.739 406.45L302.019 408.705L299.233 410.873L296.384 412.949L293.474 414.928L290.504 416.805L287.478 418.575L284.398 420.235L281.267 421.778L278.088 423.202L274.865 424.501L271.601 425.673L268.301 426.713L264.967 427.617L261.605 428.382L258.219 429.006L254.813 429.484L251.392 429.815L247.96 429.996L244.524 430.026L241.087 429.904L237.655 429.63L234.233 429.205L230.826 428.632L227.438 427.911L224.075 427.047L220.741 426.043L217.44 424.903L214.177 423.634L210.954 422.24L207.776 420.728L204.645 419.105L201.563 417.379L198.533 415.558L195.556 413.65L192.633 411.664L189.765 409.609L186.951 407.494L184.191 405.329L181.484 403.122L178.829 400.885L176.223 398.625L173.663 396.353L171.147 394.077L168.67 391.807L166.23 389.55L163.821 387.315L161.439 385.109L159.08 382.939L156.737 380.813L154.405 378.735L152.08 376.711L149.754 374.746L147.424 372.842L145.082 371.004L142.724 369.233L140.345 367.531L137.938 365.898L135.501 364.334L133.027 362.838L130.513 361.407L127.955 360.04L125.351 358.733L122.697 357.482L119.993 356.283L117.236 355.129L114.426 354.014L111.564 352.932L108.651 351.874L105.692 350.831L102.688 349.794L99.6463 348.753L96.5717 347.699L93.4715 346.621L90.3534 345.508L87.2261 344.352L84.099 343.142L80.9822 341.868L77.8863 340.523L74.8223 339.098L71.8016 337.584L68.8359 335.977L65.9369 334.269L63.1161 332.455L60.3851 330.533L57.7548 328.498L55.236 326.35L52.8386 324.087L50.5719 321.71L48.4441 319.22L46.4624 316.621L44.6333 313.915L42.962 311.108L41.4535 308.203L40.1115 305.207L38.939 302.126L37.9383 298.966L37.1106 295.733L36.4561 292.436L35.9742 289.083L35.6633 285.679L35.5207 282.235L35.5432 278.758L35.7261 275.255L36.0643 271.736L36.5516 268.207L37.1809 264.678L37.9446 261.155L38.8342 257.645L39.8406 254.156L40.954 250.694L42.1641 247.266L43.4603 243.876L44.8315 240.529L46.2662 237.231L47.7529 233.985L49.2797 230.793L50.8348 227.66L52.4064 224.586L53.9829 221.573L55.5527 218.622L57.1046 215.732L58.6278 212.902L60.1118 210.133L61.5467 207.42L62.9233 204.763L64.2327 202.158L65.4671 199.601L66.6191 197.089L67.6824 194.618L68.6514 192.182L69.5214 189.777L70.2887 187.397Z" fill="#148FFF"/>
</svg>
