<svg xmlns="http://www.w3.org/2000/svg" width="80" height="112" viewBox="0 0 80 112" fill="none">
  <path d="M0 20.9546C0 9.38168 9.63895 0 21.5293 0H58.4707C70.361 0 80 9.38168 80 20.9546C80 28.2826 76.1352 34.7323 70.2812 38.4775C76.1352 42.2229 80 48.6723 80 56.0004C80 67.5734 70.361 76.9552 58.4707 76.9552H58.0032C52.429 76.9552 47.3495 74.8932 43.5261 71.5102V90.8178C43.5261 102.545 33.6351 112 21.6453 112C9.78466 112 0 102.647 0 91.0453C0 83.7176 3.86443 77.2684 9.71793 73.523C3.86443 69.7775 0 63.3281 0 56.0004C0 48.6723 3.86477 42.2229 9.71867 38.4775C3.86477 34.7323 0 28.2826 0 20.9546ZM36.4739 41.9097H21.5293C13.5337 41.9097 7.0521 48.2184 7.0521 56.0004C7.0521 63.7525 13.4837 70.0424 21.4367 70.091C21.4675 70.0908 21.4983 70.0908 21.5293 70.0908H36.4739V41.9097ZM43.5261 56.0004C43.5261 63.7825 50.0076 70.0912 58.0032 70.0912H58.4707C66.4663 70.0912 72.9478 63.7825 72.9478 56.0004C72.9478 48.2184 66.4663 41.9097 58.4707 41.9097H58.0032C50.0076 41.9097 43.5261 48.2184 43.5261 56.0004ZM21.5293 76.9552C21.4983 76.9552 21.4675 76.9549 21.4367 76.9549C13.4837 77.0033 7.0521 83.2932 7.0521 91.0453C7.0521 98.7989 13.6203 105.136 21.6453 105.136C29.7996 105.136 36.4739 98.6969 36.4739 90.8178V76.9552H21.5293ZM21.5293 6.86389C13.5337 6.86389 7.0521 13.1725 7.0521 20.9546C7.0521 28.7367 13.5337 35.0453 21.5293 35.0453H36.4739V6.86389H21.5293ZM43.5261 35.0453H58.4707C66.4663 35.0453 72.9478 28.7367 72.9478 20.9546C72.9478 13.1725 66.4663 6.86389 58.4707 6.86389H43.5261V35.0453Z" fill="#4E36E9"/>
</svg>