<svg width="30" height="30" viewBox="0 0 30 30" fill="none" xmlns="http://www.w3.org/2000/svg">
<g clip-path="url(#clip0_484_57)">
<path fill-rule="evenodd" clip-rule="evenodd" d="M15 0.369751C6.71484 0.369751 0 7.08459 0 15.3698C0 21.9944 4.29844 27.6164 10.2574 29.6051C11.0051 29.7446 11.2846 29.2764 11.2846 28.8821C11.2846 28.5205 11.2682 27.3451 11.2682 26.0877C7.09277 26.9918 6.21328 24.3205 6.21328 24.3205C5.53125 22.5862 4.54453 22.1262 4.54453 22.1262C3.17988 21.1975 4.64297 21.2139 4.64297 21.2139C6.14707 21.3205 6.94453 22.759 6.94453 22.759C8.28398 25.0524 10.4543 24.3862 11.3092 24.0082C11.4404 23.0385 11.8354 22.3811 12.2625 22.0026C8.93379 21.6246 5.42402 20.3338 5.42402 14.5887C5.42402 12.9533 6.00762 11.6133 6.96914 10.5615C6.8127 10.1836 6.30352 8.65491 7.1168 6.59182C7.1168 6.59182 8.37422 6.18928 11.243 8.12874C12.443 7.80002 13.725 7.62717 14.9994 7.62717C16.2732 7.63538 17.5559 7.80002 18.7559 8.12874C21.6164 6.18928 22.8738 6.59182 22.8738 6.59182C23.6877 8.65491 23.1779 10.1836 23.0215 10.5615C23.983 11.6139 24.5666 12.9533 24.5666 14.5887C24.5666 20.3502 21.0568 21.6158 17.7199 21.9862C18.2543 22.4549 18.7389 23.3672 18.7389 24.7641C18.7389 26.7698 18.7225 28.3887 18.7225 28.8821C18.7225 29.2846 18.9937 29.7451 19.7496 29.6051C25.7098 27.6164 30 22.0026 30 15.3698C30 7.08459 23.2852 0.369751 15 0.369751Z" fill="white"/>
</g>
<defs>
<clipPath id="clip0_484_57">
<rect width="30" height="30" fill="white"/>
</clipPath>
</defs>
</svg>
