<svg width="105" height="105" viewBox="0 0 105 105" fill="none" xmlns="http://www.w3.org/2000/svg">
<path d="M101.348 51.3848V38.9938C103.45 38.4124 105.004 36.5039 105.004 34.2224C105.004 31.4802 102.774 29.2499 100.031 29.2499C99.333 29.2499 98.6712 29.3961 98.0679 29.6557L89.4209 18.8478C90.0169 18.0288 90.3788 17.027 90.3788 15.9375C90.3788 13.1953 88.1485 10.965 85.4063 10.965C83.9402 10.965 82.6349 11.6121 81.7245 12.6249L68.3463 5.93397C68.4084 5.62318 68.4413 5.30143 68.4413 4.96872C68.4413 2.22653 66.211 -0.00378418 63.4688 -0.00378418C61.1837 -0.00378418 59.2751 1.55012 58.6938 3.65247H42.6465C42.0652 1.55012 40.1566 -0.00378418 37.8751 -0.00378418C35.1329 -0.00378418 32.9026 2.22653 32.9026 4.96872C32.9026 5.30143 32.9391 5.62318 33.0013 5.93397L23.2757 10.7968C22.3653 9.78765 21.06 9.13684 19.5938 9.13684C16.8517 9.13684 14.6213 11.3672 14.6213 14.1093C14.6213 15.1075 14.9212 16.0325 15.4294 16.8113L7.15528 26.1201C6.49349 25.7911 5.75859 25.59 4.96884 25.59C2.22665 25.59 -0.00366211 27.8203 -0.00366211 30.5625C-0.00366211 32.8476 1.55024 34.7525 3.65259 35.3339V47.7249C1.55024 48.3062 -0.00366211 50.2148 -0.00366211 52.4963C-0.00366211 55.2385 2.22665 57.4688 4.96884 57.4688C6.96515 57.4688 8.67628 56.2805 9.46968 54.5767L21.9887 56.6644C22.2483 59.169 24.3397 61.1287 26.9063 61.1287C27.2391 61.1287 27.5608 61.0922 27.8716 61.03L30.9063 67.0957C29.8971 68.0098 29.2463 69.3151 29.2463 70.7812C29.2463 73.5234 31.4766 75.7537 34.2188 75.7537C35.9373 75.7537 37.4546 74.8762 38.3504 73.5453L51.2131 77.8341C51.2058 77.9219 51.1838 78.006 51.1838 78.0937C51.1838 80.3789 52.7377 82.2874 54.8401 82.8688V95.2562C52.7377 95.8375 51.1838 97.7461 51.1838 100.031C51.1838 102.773 53.4141 105.004 56.1563 105.004C58.8985 105.004 61.1288 102.773 61.1288 100.031C61.1288 97.7497 59.5749 95.8375 57.4726 95.2562V82.8651C59.5749 82.2838 61.1288 80.3752 61.1288 78.0901C61.1288 76.4374 60.3098 74.9822 59.0667 74.0755L61.5603 67.4211L73.125 70.7264C73.125 70.7447 73.1213 70.7629 73.1213 70.7812C73.1213 73.0627 74.6752 74.9749 76.7776 75.5563V95.2598C74.6752 95.8412 73.1213 97.7497 73.1213 100.035C73.1213 102.777 75.3517 105.007 78.0938 105.007C80.836 105.007 83.0663 102.777 83.0663 100.035C83.0663 97.7534 81.5124 95.8412 79.4101 95.2598V75.5563C81.5124 74.9749 83.0663 73.0664 83.0663 70.7812C83.0663 70.2364 82.9567 69.7209 82.7958 69.231L96.7919 59.8966C97.6657 60.6571 98.7882 61.1287 100.031 61.1287C102.774 61.1287 105.004 58.8984 105.004 56.1562C105.004 53.8747 103.45 51.9662 101.348 51.3848ZM72.0757 48.5951C72.0683 48.4306 72.0501 48.266 72.0245 48.1052L83.1724 43.1509L95.2855 53.7504L72.0757 48.5951ZM67.1251 51.1837C65.8344 51.1837 64.7851 50.1344 64.7851 48.8437C64.7851 47.5531 65.8344 46.5037 67.1251 46.5037C68.4157 46.5037 69.4651 47.5531 69.4651 48.8437C69.4651 50.1344 68.4157 51.1837 67.1251 51.1837ZM67.1251 43.8712C64.3829 43.8712 62.1526 46.1015 62.1526 48.8437C62.1526 50.4963 62.9716 51.9515 64.2147 52.8546L59.9515 64.2256L52.9973 62.2402L47.6409 43.4983L67.615 29.7654L69.9111 31.5533L80.9823 41.2424L70.9459 45.703C70.0355 44.5952 68.6717 43.8712 67.1251 43.8712ZM27.3853 51.2312L23.6961 30.014L36.9025 28.6941V28.6795C37.6191 30.5442 39.4144 31.8787 41.5313 31.8787C41.5496 31.8787 41.5642 31.8751 41.5825 31.8751L44.5916 42.4014L30.0909 52.3683C29.3414 51.7395 28.4127 51.3336 27.3853 51.2312ZM41.5313 29.2462C40.2407 29.2462 39.1913 28.1969 39.1913 26.9062C39.1913 25.6156 40.2407 24.5662 41.5313 24.5662C42.822 24.5662 43.8713 25.6156 43.8713 26.9062C43.8713 28.1969 42.822 29.2462 41.5313 29.2462ZM31.5863 54.5365L45.3521 45.0705L50.0138 61.3883L31.8715 56.2037C31.8715 56.1855 31.8752 56.1708 31.8752 56.1526C31.8788 55.5858 31.7618 55.0484 31.5863 54.5365ZM82.2217 19.7253C83.0883 20.4529 84.1888 20.91 85.4063 20.91C86.1047 20.91 86.7665 20.7637 87.3697 20.5041L96.0168 31.3083C95.4208 32.1273 95.0588 33.1292 95.0588 34.2187C95.0588 34.471 95.0954 34.7123 95.132 34.9536L83.6367 40.0614L71.5894 29.5204L69.8929 28.2005L82.2217 19.7253ZM97.2928 52.01L85.8195 41.9736L96.2069 37.3594C96.8504 38.1382 97.7133 38.7159 98.7151 38.9901V51.3812C98.2069 51.5237 97.7242 51.7285 97.2928 52.01ZM102.371 34.2187C102.371 35.5094 101.322 36.5587 100.031 36.5587C98.7407 36.5587 97.6913 35.5094 97.6913 34.2187C97.6913 32.9281 98.7407 31.8787 100.031 31.8787C101.322 31.8787 102.371 32.9281 102.371 34.2187ZM85.4063 13.5975C86.697 13.5975 87.7463 14.6468 87.7463 15.9375C87.7463 17.2281 86.697 18.2775 85.4063 18.2775C84.1157 18.2775 83.0663 17.2281 83.0663 15.9375C83.0663 14.6468 84.1157 13.5975 85.4063 13.5975ZM63.4688 2.62872C64.7595 2.62872 65.8088 3.67806 65.8088 4.96872C65.8088 6.25937 64.7595 7.30872 63.4688 7.30872C62.1782 7.30872 61.1288 6.25937 61.1288 4.96872C61.1288 3.67806 62.1782 2.62872 63.4688 2.62872ZM63.4688 9.94122C64.935 9.94122 66.2403 9.29406 67.1507 8.28128L80.5289 14.9722C80.4667 15.283 80.4338 15.6047 80.4338 15.9375C80.4338 16.5078 80.5508 17.0453 80.7263 17.5572L67.7101 26.5077L42.4673 6.87362C42.5441 6.68715 42.5953 6.48606 42.6501 6.28497H58.6974C59.2751 8.38731 61.1837 9.94122 63.4688 9.94122ZM37.8751 2.62872C39.1657 2.62872 40.2151 3.67806 40.2151 4.96872C40.2151 6.25937 39.1657 7.30872 37.8751 7.30872C36.5844 7.30872 35.5351 6.25937 35.5351 4.96872C35.5351 3.67806 36.5844 2.62872 37.8751 2.62872ZM34.1932 8.28128C35.1036 9.2904 36.4089 9.94122 37.8751 9.94122C38.9866 9.94122 40.0067 9.56097 40.8367 8.9394L65.4359 28.0689L46.8804 40.8256L44.1127 31.1365C45.5386 30.2627 46.5038 28.7014 46.5038 26.9062C46.5038 24.164 44.2735 21.9337 41.5313 21.9337C39.0707 21.9337 37.0378 23.7326 36.6429 26.0836V26.0726L23.2428 27.4108L21.7072 18.5919C23.3927 17.7948 24.5663 16.091 24.5663 14.1093C24.5663 13.7766 24.5298 13.4549 24.4676 13.1441L34.1932 8.28128ZM9.59399 28.7746C9.46968 28.4528 9.31978 28.1457 9.13331 27.8605L17.4074 18.5517C17.9302 18.8113 18.5043 18.9722 19.1149 19.0343L20.6176 27.674L9.59399 28.7746ZM19.5938 11.7693C20.8845 11.7693 21.9338 12.8187 21.9338 14.1093C21.9338 15.4 20.8845 16.4493 19.5938 16.4493C18.3032 16.4493 17.2538 15.4 17.2538 14.1093C17.2538 12.8187 18.3032 11.7693 19.5938 11.7693ZM2.62884 30.5625C2.62884 29.2718 3.67818 28.2225 4.96884 28.2225C6.25949 28.2225 7.30884 29.2718 7.30884 30.5625C7.30884 31.8531 6.25949 32.9025 4.96884 32.9025C3.67818 32.9025 2.62884 31.8531 2.62884 30.5625ZM4.96884 54.84C3.67818 54.84 2.62884 53.7906 2.62884 52.5C2.62884 51.2093 3.67818 50.16 4.96884 50.16C6.25949 50.16 7.30884 51.2093 7.30884 52.5C7.30884 53.7906 6.25949 54.84 4.96884 54.84ZM22.4055 54.0722L9.88649 51.9844C9.67078 49.9333 8.2229 48.2624 6.28143 47.7249V35.3339C8.12053 34.8257 9.52818 33.301 9.85359 31.3961L21.0673 30.2736L24.7894 51.6737C23.7437 52.1709 22.8991 53.0192 22.4055 54.0722ZM24.5663 56.1562C24.5663 54.8656 25.6157 53.8162 26.9063 53.8162C28.197 53.8162 29.2463 54.8656 29.2463 56.1562C29.2463 57.4469 28.197 58.4962 26.9063 58.4962C25.6157 58.4962 24.5663 57.4469 24.5663 56.1562ZM34.2188 73.1212C32.9282 73.1212 31.8788 72.0719 31.8788 70.7812C31.8788 69.4906 32.9282 68.4412 34.2188 68.4412C35.5095 68.4412 36.5588 69.4906 36.5588 70.7812C36.5588 72.0719 35.5095 73.1212 34.2188 73.1212ZM39.1657 71.0408C39.1694 70.9531 39.1913 70.869 39.1913 70.7812C39.1913 68.039 36.961 65.8087 34.2188 65.8087C33.8861 65.8087 33.5644 65.8453 33.2536 65.9074L30.2189 59.8417C30.5772 59.52 30.8843 59.1507 31.1366 58.7375L50.8657 64.3718L53.5787 73.8634C52.9644 74.24 52.427 74.7336 52.0248 75.3333L39.1657 71.0408ZM58.4963 100.031C58.4963 101.322 57.447 102.371 56.1563 102.371C54.8657 102.371 53.8163 101.322 53.8163 100.031C53.8163 98.7406 54.8657 97.6912 56.1563 97.6912C57.447 97.6912 58.4963 98.7406 58.4963 100.031ZM56.1563 80.4337C54.8657 80.4337 53.8163 79.3844 53.8163 78.0937C53.8163 76.8031 54.8657 75.7537 56.1563 75.7537C57.447 75.7537 58.4963 76.8031 58.4963 78.0937C58.4963 79.3844 57.447 80.4337 56.1563 80.4337ZM56.5987 73.1651C56.4488 73.1505 56.3062 73.1212 56.1563 73.1212C56.1381 73.1212 56.1234 73.1249 56.1051 73.1249L53.8456 65.2201L59.0228 66.6972L56.5987 73.1651ZM62.489 64.9532L66.6827 53.7687C66.8326 53.7833 66.9752 53.8126 67.1251 53.8126C69.0227 53.8126 70.6607 52.7303 71.498 51.1618L95.0844 56.4012C95.1064 56.8546 95.1941 57.2897 95.3331 57.7028L81.3369 67.0372C80.4594 66.2804 79.337 65.8087 78.0938 65.8087C76.2986 65.8087 74.7374 66.774 73.8599 68.2036L62.489 64.9532ZM80.4338 100.031C80.4338 101.322 79.3845 102.371 78.0938 102.371C76.8032 102.371 75.7538 101.322 75.7538 100.031C75.7538 98.7406 76.8032 97.6912 78.0938 97.6912C79.3845 97.6912 80.4338 98.7406 80.4338 100.031ZM78.0938 73.1212C76.8032 73.1212 75.7538 72.0719 75.7538 70.7812C75.7538 69.4906 76.8032 68.4412 78.0938 68.4412C79.3845 68.4412 80.4338 69.4906 80.4338 70.7812C80.4338 72.0719 79.3845 73.1212 78.0938 73.1212ZM100.031 58.4962C98.7407 58.4962 97.6913 57.4469 97.6913 56.1562C97.6913 54.8656 98.7407 53.8162 100.031 53.8162C101.322 53.8162 102.371 54.8656 102.371 56.1562C102.371 57.4469 101.322 58.4962 100.031 58.4962Z" fill="#4E36E9"/>
</svg>
