<svg xmlns="http://www.w3.org/2000/svg" width="100" height="112" viewBox="0 0 100 112" fill="none">
  <path d="M45.5951 110.842L31.8653 102.735C30.3958 101.964 30.266 101.365 31.4764 100.933C33.5486 100.248 35.6208 99.3053 37.6937 98.103C38.0368 97.9333 38.3833 97.9734 38.7299 98.232L49.3514 104.408C49.7826 104.665 50.2125 104.665 50.6458 104.408L91.8375 80.733C92.2681 80.5627 92.4847 80.2192 92.4847 79.7053V32.3575C92.4847 31.8422 92.2681 31.4553 91.8375 31.1987L50.6458 7.5241C50.2125 7.26681 49.7819 7.26681 49.3514 7.5241L8.03125 31.1987C7.59722 31.4553 7.38334 31.8422 7.38334 32.3575V79.7053C7.38334 80.2192 7.59792 80.5627 8.03125 80.733L19.4299 87.297C22.4528 88.582 24.8479 88.7124 26.6187 87.6812C28.3875 86.6534 29.2743 85.1531 29.2743 83.1783V36.3437C29.2743 35.5732 29.6632 35.1877 30.4403 35.1877H35.7514C36.5278 35.1877 36.9174 35.5732 36.9174 36.3437V83.1769C36.9174 87.2114 35.8354 90.341 33.6785 92.571C31.5194 94.8004 28.4972 95.9164 24.6118 95.9164C21.8465 95.9164 18.6944 95.059 15.1556 93.3422L4.2743 87.1666C1.42569 85.5394 0 83.05 0 79.7046V32.3575C0 29.0107 1.42569 26.524 4.2743 24.8948L45.5951 1.22091C48.5306 -0.406969 51.425 -0.406969 54.2743 1.22091L95.5951 24.8948C98.5305 26.524 100 29.0114 100 32.3575V79.7053C100 83.0507 98.5305 85.5401 95.5951 87.1666L54.4035 110.842C53.0215 111.612 51.5542 112 50 112C48.4458 112 46.9764 111.612 45.5951 110.842ZM51.684 78.0967C48.6597 77.1945 46.416 75.9515 44.9479 74.3643C43.4785 72.7778 42.4215 71.17 41.7743 69.5414C41.1264 67.9114 40.8028 66.1518 40.8028 64.2653C40.8028 63.4913 41.234 63.1071 42.0979 63.1071H47.4083C48.0993 63.1071 48.4882 63.4079 48.575 64.0087C49.0056 66.9244 50.1715 69.0247 52.0722 70.3126C53.9708 71.5983 57.5125 72.2426 62.6938 72.2426C67.0104 72.2426 70.1618 71.71 72.1493 70.6347C74.134 69.5628 75.1292 67.9121 75.1292 65.6814C75.1292 64.6508 74.8701 63.8135 74.3514 63.1727C73.8333 62.5284 72.4736 61.9076 70.2715 61.3054C68.0687 60.706 64.809 60.1921 60.4924 59.7617C54.2736 59.1637 49.6757 57.96 46.6972 56.1597C43.7174 54.3573 42.2285 51.3574 42.2285 47.1519C42.2285 43.0353 43.8896 39.7995 47.2153 37.4377C50.5389 35.0794 55.1368 33.9005 61.0104 33.9005C67.659 33.9005 72.6681 35.0794 76.0354 37.4377C79.4035 39.7995 81.2597 43.4215 81.6055 48.3114C81.691 48.6535 81.6056 48.9549 81.3465 49.2115C81.0875 49.4688 80.784 49.5992 80.4403 49.5992H75.1299C74.4368 49.5992 74.0486 49.2985 73.9639 48.697C73.2722 45.8661 71.9986 43.8927 70.1431 42.7787C68.2854 41.6654 65.2403 41.1053 61.0111 41.1053C53.9292 41.1053 50.3896 43.036 50.3896 46.896C50.3896 48.0127 50.691 48.826 51.2965 49.3392C51.9 49.8565 53.1743 50.3511 55.1174 50.8194C57.0604 51.2926 60.1903 51.8286 64.5083 52.4273C71.3299 53.3737 76.1667 54.7015 79.0167 56.417C81.8667 58.1324 83.291 61.0937 83.291 65.2944C83.291 69.7545 81.4979 73.2296 77.9153 75.7156C74.3312 78.2043 69.2569 79.4466 62.6951 79.4466C58.3743 79.4466 54.7049 78.9976 51.684 78.0967Z" fill="#4E36E9"/>
</svg>