<svg width="32" height="31" viewBox="0 0 32 31" fill="none" xmlns="http://www.w3.org/2000/svg">
<path d="M30.9656 22.2012V26.4509C30.9673 26.8455 30.8813 27.236 30.713 27.5975C30.5447 27.9589 30.2979 28.2834 29.9883 28.5501C29.6787 28.8169 29.3133 29.0199 28.9153 29.1463C28.5174 29.2727 28.0957 29.3196 27.6773 29.2841C23.0358 28.8105 18.5772 27.3209 14.6599 24.9352C11.0154 22.7602 7.92545 19.8584 5.60956 16.4356C3.06034 12.74 1.47391 8.53243 0.978796 4.15374C0.941102 3.76201 0.990674 3.36719 1.12436 2.99444C1.25804 2.62168 1.4729 2.27915 1.75526 1.98865C2.03763 1.69815 2.38131 1.46605 2.76442 1.30713C3.14753 1.1482 3.56168 1.06594 3.9805 1.06557H8.50567C9.2377 1.0588 9.94738 1.30225 10.5024 1.75054C11.0575 2.19882 11.42 2.82136 11.5225 3.50211C11.7135 4.86213 12.0677 6.1975 12.5783 7.48274C12.7813 7.98977 12.8252 8.54081 12.7049 9.07057C12.5846 9.60033 12.3051 10.0866 11.8996 10.4718L9.9839 12.2708C12.1312 15.8173 15.2579 18.7538 19.0342 20.7704L20.9499 18.9713C21.36 18.5904 21.8778 18.328 22.4419 18.215C23.006 18.102 23.5927 18.1433 24.1326 18.3339C25.5011 18.8134 26.923 19.1461 28.3712 19.3255C29.1039 19.4225 29.7731 19.7692 30.2515 20.2994C30.7298 20.8296 30.984 21.5064 30.9656 22.2012Z" stroke="white" stroke-width="1.5" stroke-linecap="round" stroke-linejoin="round"/>
</svg>
