<svg width="144" height="144" viewBox="0 0 144 144" fill="none" xmlns="http://www.w3.org/2000/svg">
<g clip-path="url(#clip0_713_5)">
<path d="M120.343 0H82.1714C78.8892 0 76.2285 2.66071 76.2285 5.94286V138.057C76.2285 141.339 78.8892 144 82.1714 144H120.343C123.625 144 126.286 141.339 126.286 138.057V5.94286C126.286 2.66071 123.625 0 120.343 0Z" fill="url(#paint0_linear_713_5)"/>
<g filter="url(#filter0_d_713_5)">
<path d="M96.8003 138.057V144H90.8575H52.686C49.4039 144 46.7432 141.339 46.7432 138.057V41.8286C46.7432 38.5465 49.4039 35.8857 52.686 35.8857H90.8575C94.1396 35.8857 96.8003 38.5465 96.8003 41.8286V138.057Z" fill="black"/>
</g>
<path d="M96.8003 138.057V144H90.8575H52.686C49.4039 144 46.7432 141.339 46.7432 138.057V41.8286C46.7432 38.5465 49.4039 35.8857 52.686 35.8857H90.8575C94.1396 35.8857 96.8003 38.5465 96.8003 41.8286V138.057Z" fill="url(#paint1_linear_713_5)"/>
<g filter="url(#filter1_d_713_5)">
<path d="M67 140.042V144H61.1826H23.8174C20.6045 144 18 142.228 18 140.042V75.9577C18 73.7719 20.6045 72 23.8174 72H61.1826C64.3955 72 67 73.7719 67 75.9577V140.042Z" fill="black"/>
</g>
<g filter="url(#filter2_d_713_5)">
<path fill-rule="evenodd" clip-rule="evenodd" d="M67.7715 138.057V144H61.8286H23.6572C20.3751 144 17.7144 141.339 17.7144 138.057V77.9429C17.7144 74.6607 20.3751 72 23.6572 72H61.8286C65.1108 72 67.7715 74.6607 67.7715 77.9429V138.057Z" fill="url(#paint2_linear_713_5)"/>
</g>
</g>
<defs>
<filter id="filter0_d_713_5" x="46.7432" y="25.8857" width="90.0571" height="148.114" filterUnits="userSpaceOnUse" color-interpolation-filters="sRGB">
<feFlood flood-opacity="0" result="BackgroundImageFix"/>
<feColorMatrix in="SourceAlpha" type="matrix" values="0 0 0 0 0 0 0 0 0 0 0 0 0 0 0 0 0 0 127 0" result="hardAlpha"/>
<feOffset dx="20" dy="10"/>
<feGaussianBlur stdDeviation="10"/>
<feColorMatrix type="matrix" values="0 0 0 0 0 0 0 0 0 0 0 0 0 0 0 0 0 0 0.0530212 0"/>
<feBlend mode="normal" in2="BackgroundImageFix" result="effect1_dropShadow_713_5"/>
<feBlend mode="normal" in="SourceGraphic" in2="effect1_dropShadow_713_5" result="shape"/>
</filter>
<filter id="filter1_d_713_5" x="18" y="62" width="89" height="112" filterUnits="userSpaceOnUse" color-interpolation-filters="sRGB">
<feFlood flood-opacity="0" result="BackgroundImageFix"/>
<feColorMatrix in="SourceAlpha" type="matrix" values="0 0 0 0 0 0 0 0 0 0 0 0 0 0 0 0 0 0 127 0" result="hardAlpha"/>
<feOffset dx="20" dy="10"/>
<feGaussianBlur stdDeviation="10"/>
<feColorMatrix type="matrix" values="0 0 0 0 0 0 0 0 0 0 0 0 0 0 0 0 0 0 0.0530212 0"/>
<feBlend mode="normal" in2="BackgroundImageFix" result="effect1_dropShadow_713_5"/>
<feBlend mode="normal" in="SourceGraphic" in2="effect1_dropShadow_713_5" result="shape"/>
</filter>
<filter id="filter2_d_713_5" x="2.71436" y="52" width="90.0571" height="112" filterUnits="userSpaceOnUse" color-interpolation-filters="sRGB">
<feFlood flood-opacity="0" result="BackgroundImageFix"/>
<feColorMatrix in="SourceAlpha" type="matrix" values="0 0 0 0 0 0 0 0 0 0 0 0 0 0 0 0 0 0 127 0" result="hardAlpha"/>
<feOffset dx="5"/>
<feGaussianBlur stdDeviation="10"/>
<feComposite in2="hardAlpha" operator="out"/>
<feColorMatrix type="matrix" values="0 0 0 0 0 0 0 0 0 0 0 0 0 0 0 0 0 0 0.25 0"/>
<feBlend mode="normal" in2="BackgroundImageFix" result="effect1_dropShadow_713_5"/>
<feBlend mode="normal" in="SourceGraphic" in2="effect1_dropShadow_713_5" result="shape"/>
</filter>
<linearGradient id="paint0_linear_713_5" x1="2579.09" y1="0" x2="2579.09" y2="14400" gradientUnits="userSpaceOnUse">
<stop stop-color="#4E36E9"/>
<stop offset="1" stop-color="#4E36E9"/>
</linearGradient>
<linearGradient id="paint1_linear_713_5" x1="2549.6" y1="35.8857" x2="2549.6" y2="10847.3" gradientUnits="userSpaceOnUse">
<stop stop-color="#4E36E9"/>
<stop offset="1" stop-color="#4E36E9"/>
</linearGradient>
<linearGradient id="paint2_linear_713_5" x1="2520.57" y1="72" x2="2520.57" y2="7272" gradientUnits="userSpaceOnUse">
<stop stop-color="#4E36E9"/>
<stop offset="1" stop-color="#4E36E9"/>
</linearGradient>
<clipPath id="clip0_713_5">
<rect width="144" height="144" fill="white"/>
</clipPath>
</defs>
</svg>
