<svg width="100" height="113" viewBox="0 0 100 113" fill="none" xmlns="http://www.w3.org/2000/svg">
<path d="M48.913 0.751465C30.0017 0.751465 26.087 11.6576 26.087 17.9736V29.8849H47.8261V32.3127H15.4212C8.24558 32.3127 0 38.6288 0 56.5906C0 74.5525 8.24558 80.8685 15.4212 80.8685H28.2609V66.3018C28.2609 60.9625 32.1756 56.5906 36.9565 56.5906H63.0435C66.7374 56.5906 69.5652 53.4326 69.5652 49.3073V17.9736C69.5652 9.47633 62.3896 0.751465 48.913 0.751465ZM39.1304 12.8904C41.5251 12.8904 43.4783 15.0716 43.4783 17.746C43.4783 20.4204 41.5251 22.6016 39.1304 22.6016C36.7357 22.6016 34.7826 20.4204 34.7826 17.746C34.7826 15.0716 36.7357 12.8904 39.1304 12.8904ZM71.7391 32.3127V49.3073C71.7391 54.6465 67.8244 59.0184 63.0435 59.0184H36.9565C33.2626 59.0184 30.4348 62.1764 30.4348 66.3018V95.2076C30.4348 103.705 37.6104 112.43 51.087 112.43C69.9983 112.43 73.913 101.524 73.913 95.2076V83.2963H52.1739V80.8685H84.5788C91.7544 80.8685 100 74.5525 100 56.5906C100 38.6288 91.7544 32.3127 84.5788 32.3127H71.7391ZM60.8696 90.5797C63.2643 90.5797 65.2174 92.7609 65.2174 95.4352C65.2174 98.1096 63.2643 100.291 60.8696 100.291C58.4749 100.291 56.5217 98.1096 56.5217 95.4352C56.5217 92.7609 58.4749 90.5797 60.8696 90.5797Z" fill="#4E36E9"/>
</svg>
