<svg xmlns="http://www.w3.org/2000/svg" width="100" height="90" viewBox="0 0 100 90" fill="none">
  <path d="M82.2201 29.1707C81.1827 28.8095 80.1078 28.4677 79.001 28.1445C79.1829 27.3935 79.3498 26.6522 79.4983 25.9235C81.9351 13.9583 80.3418 4.31898 74.9013 1.14531C69.6845 -1.89782 61.1529 1.27513 52.5363 8.86053C51.7077 9.58994 50.8768 10.3622 50.0463 11.1716C49.4929 10.6361 48.9404 10.1186 48.3893 9.62361C39.3589 1.51281 30.3073 -1.9052 24.8721 1.27765C19.6603 4.3296 18.1169 13.3915 20.3104 24.731C20.5222 25.8263 20.7698 26.9448 21.0498 28.0821C19.7687 28.4499 18.532 28.8421 17.3486 29.2593C6.76146 32.9931 0 38.8449 0 44.9148C0 51.1838 7.25843 57.4717 18.2858 61.2844C19.156 61.5853 20.059 61.8698 20.9896 62.1399C20.6875 63.3698 20.4248 64.5751 20.2043 65.7507C18.1128 76.8935 19.7461 85.7412 24.944 88.7739C30.313 91.9058 39.3236 88.6866 48.0977 80.9284C48.7912 80.3151 49.4872 79.6647 50.1844 78.983C51.0881 79.8633 51.9904 80.6964 52.8879 81.4779C61.3866 88.8758 69.7805 91.8632 74.9736 88.822C80.3372 85.6811 82.0803 76.1765 79.8173 64.6126C79.6444 63.7294 79.4433 62.8271 79.2174 61.9088C79.8502 61.7196 80.4714 61.5242 81.0771 61.3211C92.5411 57.4789 100 51.2675 100 44.9148C100 38.8229 93.0205 32.9317 82.2201 29.1707ZM79.7336 57.2193C79.1868 57.4024 78.6257 57.5794 78.054 57.751C76.7884 53.6981 75.0804 49.3885 72.9901 44.9359C74.9848 40.5893 76.6268 36.3348 77.857 32.3082C78.8799 32.6076 79.8728 32.9234 80.8295 33.2567C90.0833 36.4792 95.728 41.2436 95.728 44.9148C95.728 48.8252 89.6319 53.9016 79.7336 57.2193ZM75.6265 65.4518C76.6272 70.5652 76.7701 75.1883 76.1072 78.8024C75.5117 82.0499 74.3139 84.2151 72.833 85.0822C69.6815 86.9275 62.9421 84.5289 55.6739 78.2021C54.8407 77.4769 54.0014 76.7024 53.1595 75.8828C55.9772 72.7655 58.7933 69.1415 61.5418 65.1167C66.3761 64.6828 70.9433 63.9734 75.0852 63.0048C75.2892 63.8372 75.4704 64.6536 75.6265 65.4518ZM34.0923 84.7634C31.0132 85.8633 28.561 85.8948 27.0786 85.0302C23.9243 83.1899 22.6129 76.0859 24.4017 66.5566C24.6065 65.4653 24.8504 64.3443 25.1315 63.1984C29.2279 64.1147 33.7617 64.7741 38.6076 65.1715C41.3745 69.1098 44.272 72.7299 47.1919 75.8996C46.5539 76.5226 45.9185 77.1157 45.2866 77.6746C41.4068 81.1052 37.5187 83.5392 34.0923 84.7634ZM19.6674 57.1953C14.7913 55.5095 10.7645 53.3184 8.00424 50.9274C5.52401 48.7788 4.27179 46.6457 4.27179 44.9148C4.27179 41.2314 9.70057 36.5332 18.7548 33.3399C19.8534 32.9524 21.0035 32.5872 22.197 32.2442C23.4483 36.3618 25.0898 40.6667 27.0707 45.0199C25.0642 49.4378 23.3993 53.8114 22.1357 57.9771C21.2849 57.7297 20.4606 57.4694 19.6674 57.1953ZM24.5028 23.9012C22.6235 14.1857 23.8716 6.85669 27.0124 5.0176C30.3578 3.05841 37.7556 5.8518 45.5527 12.8551C46.0511 13.3027 46.5515 13.7712 47.0532 14.2559C44.1478 17.4118 41.2768 21.0046 38.5344 24.9197C33.8313 25.3607 29.3294 26.069 25.1902 27.0176C24.93 25.9587 24.6994 24.9183 24.5028 23.9012ZM67.6382 34.6755C66.6488 32.9466 65.6329 31.2586 64.5973 29.6167C67.7879 30.0247 70.8449 30.5663 73.7157 31.2291C72.8538 34.0232 71.7796 36.9446 70.5151 39.9395C69.608 38.1974 68.6486 36.441 67.6382 34.6755ZM50.0477 17.3442C52.0181 19.5037 53.9914 21.9146 55.9323 24.5305C53.9765 24.437 51.9964 24.3884 50 24.3884C48.0224 24.3884 46.057 24.4359 44.1132 24.5278C46.0561 21.9362 48.0465 19.5285 50.0477 17.3442ZM32.3445 34.7054C31.3561 36.4392 30.4145 38.1861 29.5216 39.9362C28.2776 36.9518 27.2133 34.0171 26.344 31.1833C29.1971 30.5375 32.2397 30.0094 35.41 29.6091C34.3598 31.2662 33.3356 32.967 32.3445 34.7054ZM35.5013 60.5287C32.2258 60.1591 29.1375 59.6581 26.2851 59.0301C27.1683 56.1458 28.256 53.1484 29.5264 50.0997C30.4216 51.8486 31.3669 53.5962 32.3614 55.3337C33.3744 57.1039 34.424 58.8378 35.5013 60.5287ZM50.1659 72.79C48.1412 70.5802 46.1216 68.1357 44.1492 65.5064C46.0639 65.5823 48.016 65.6212 50 65.6212C52.0383 65.6212 54.0532 65.5748 56.0365 65.4855C54.0892 68.1622 52.123 70.6104 50.1659 72.79ZM70.5558 49.9443C71.8924 53.026 73.0191 56.0077 73.9138 58.8428C71.0143 59.5119 67.8839 60.0508 64.5856 60.4513C65.6237 58.7872 66.6484 57.0702 67.6553 55.304C68.674 53.5171 69.6413 51.7276 70.5558 49.9443ZM63.9549 53.1451C62.3917 55.8869 60.7869 58.5042 59.1577 60.9747C56.1903 61.1893 53.1246 61.2999 50 61.2999C46.8881 61.2999 43.861 61.2021 40.9461 61.0107C39.2512 58.5078 37.6115 55.8827 36.0583 53.1687C34.5091 50.4621 33.0837 47.7327 31.7918 45.0185C33.0834 42.298 34.5054 39.5655 36.0456 36.8638L36.0453 36.8643C37.5896 34.1554 39.2149 31.5431 40.8941 29.0558C43.8681 28.8284 46.9178 28.7097 49.9998 28.7097C53.0958 28.7097 56.1495 28.8293 59.1226 29.0587C60.7762 31.5278 62.3905 34.1316 63.9409 36.8409C65.5088 39.5806 66.9492 42.295 68.2518 44.9571C66.9531 47.665 65.516 50.4067 63.9549 53.1451ZM72.7675 4.88904C76.1161 6.84247 77.4184 14.7206 75.3144 25.0514C75.1802 25.7105 75.0291 26.382 74.865 27.0624C70.7162 26.0941 66.211 25.3735 61.4943 24.9259C58.7465 20.9677 55.8991 17.3693 53.0409 14.2539C53.8093 13.5062 54.5767 12.7931 55.3409 12.1203C62.7235 5.62115 69.6236 3.05517 72.7675 4.88904ZM50 35.8819C54.9316 35.8819 58.9297 39.926 58.9297 44.9148C58.9297 49.9034 54.9316 53.9477 50 53.9477C45.0684 53.9477 41.0703 49.9034 41.0703 44.9148C41.0703 39.926 45.0684 35.8819 50 35.8819Z" fill="#4E36E9"/>
</svg>