<svg xmlns="http://www.w3.org/2000/svg" width="100" height="118" viewBox="0 0 100 118" fill="none">
  <path d="M99.3842 14.4294C95.8217 0.572033 72.6467 -3.98127 50.7127 3.74302C37.6581 8.34189 23.5309 15.5573 13.3683 24.9791C1.28663 36.182 -0.640157 45.9304 0.156605 50.0052C2.95677 64.3791 22.826 73.7781 30.9928 80.7467V80.7884C28.5834 81.9619 10.9589 90.8065 6.83332 99.8485C2.48177 109.388 7.52666 116.231 10.8669 117.154C21.2172 120.01 31.8356 114.876 37.547 106.434C43.0554 98.2877 42.5957 87.7722 40.2016 82.5391C43.5035 81.6771 47.3533 81.2897 52.2449 81.8556C66.0504 83.4543 68.7586 91.9989 68.2415 95.5762C67.7244 99.1536 64.8284 101.121 63.8593 101.713C62.8901 102.306 62.5952 102.514 62.6756 102.955C62.7944 103.597 63.2426 103.574 64.0661 103.433C65.2038 103.244 71.3136 100.524 71.5779 93.9243C71.9112 85.543 63.8095 76.1668 49.4639 76.4136C43.5572 76.5162 39.8415 77.0706 37.1563 78.0618C36.9571 77.8377 36.7579 77.6136 36.5472 77.3934C27.6794 68.0134 11.2845 61.379 11.9778 48.7672C12.2306 44.1835 13.8395 32.111 43.4806 17.4675C67.7627 5.47092 87.2029 8.77482 90.5623 16.089C95.3621 26.5399 80.1738 45.9646 54.957 48.7672C45.3499 49.8343 40.2897 46.1431 39.0332 44.7683C37.7079 43.3215 37.5125 43.2569 37.0145 43.5265C36.2101 43.9708 36.7196 45.2468 37.0145 46.0101C37.7692 47.9545 40.8566 51.3989 46.1237 53.1116C50.7587 54.6193 62.0359 55.4471 75.6805 50.2179C90.9569 44.3506 102.889 28.0514 99.3842 14.4294ZM35.1116 84.6154C36.2446 88.9223 36.1195 92.9372 34.9486 96.5705C34.8198 96.9755 34.6758 97.3727 34.5204 97.7699C34.3651 98.1632 34.1983 98.5526 34.0165 98.9381C33.1146 100.862 31.902 102.661 30.4204 104.324C25.8959 109.394 19.5791 111.314 16.8697 109.698C13.9443 107.953 15.4108 100.803 20.6515 95.1102C26.2938 88.9808 34.4105 85.0398 34.4105 85.0398L34.3992 85.0165C34.6341 84.8841 34.8691 84.7517 35.1116 84.6154Z" fill="#4E36E9"/>
</svg>