<svg width="102" height="136" viewBox="0 0 102 136" fill="none" xmlns="http://www.w3.org/2000/svg">
<path d="M42.9269 135.913C30.1966 134.995 17.6143 131.791 9.89773 127.501C5.50236 125.058 2.15371 122.055 0.839676 119.379L0.0578613 117.786V67.8393V17.8921L0.676507 16.636C3.44113 11.0231 12.2643 5.96301 24.581 2.9269C28.7619 1.89622 34.7977 0.869816 39.7217 0.352238C44.7498 -0.176413 58.0771 -0.0959826 63.0927 0.494063C76.4231 2.0602 87.7664 5.56639 94.7569 10.2815C97.4527 12.0998 100.219 15.0093 101.156 17.012L101.96 18.7291L101.891 68.5251L101.822 118.321L101.177 119.632C100.822 120.352 99.7509 121.77 98.796 122.782C92.9834 128.944 80.5153 133.502 64.1612 135.444C60.8279 135.84 46.3467 136.16 42.9269 135.913ZM66.3869 93.115C66.338 92.9874 64.4349 91.292 62.1579 89.3474C59.8809 87.4028 57.9198 85.7203 57.7999 85.6086C57.68 85.4969 58.1007 85.1015 58.7348 84.7298C59.3688 84.3581 60.5836 83.3241 61.4343 82.432C63.9221 79.8233 65.0959 76.6009 65.0959 72.3799C65.0959 68.2245 63.83 64.8718 61.2944 62.3125C58.7389 59.7327 55.8047 58.6243 51.5317 58.6243C44.9453 58.6243 39.8869 62.4675 38.2724 68.6983C37.717 70.8414 37.72 75.172 38.2782 77.0723C39.7342 82.0293 43.6997 85.6294 48.6349 86.4747C50.3049 86.7608 50.5311 86.8841 51.6697 88.129C52.3464 88.8688 53.735 90.3455 54.7555 91.4105L56.611 93.347H61.5435C64.2564 93.347 66.4359 93.2426 66.3869 93.115ZM49.4713 79.3043C48.2839 78.6851 47.835 78.2046 47.1578 76.828C46.6348 75.7648 46.5454 75.1601 46.5395 72.6471C46.5337 70.0936 46.6149 69.5418 47.161 68.433C48.0544 66.6186 49.2856 65.7596 51.1902 65.6219C53.8413 65.4295 55.3716 66.7307 56.1736 69.8575C57.157 73.6912 56.0756 77.767 53.7164 79.1197C52.4786 79.8293 50.6324 79.9097 49.4713 79.3043ZM27.6082 86.4203C32.7796 85.4396 35.7153 82.4321 35.7153 78.1148C35.7153 74.2847 33.82 72.0529 28.5818 69.7145C25.5833 68.3759 24.4971 67.5357 24.4971 66.5539C24.4971 65.7403 25.5279 64.8486 26.7278 64.6246C27.8994 64.4058 31.0067 64.9455 32.8417 65.6867L34.3798 66.3081V62.9035V59.4986L32.7104 59.1283C31.6787 58.8994 29.5107 58.7621 27.0346 58.7691C23.5272 58.7691 22.8404 58.8546 21.5205 59.3787C17.665 60.9093 15.8354 63.5166 15.8647 67.4387C15.8921 71.1103 17.829 73.4005 22.6496 75.4609C25.4939 76.6766 26.634 77.6023 26.634 78.6962C26.634 81.0208 22.7607 81.3069 18.6598 79.2852C17.5367 78.7315 16.5277 78.2334 16.4175 78.1782C16.3074 78.1231 16.2172 79.7135 16.2172 81.7126C16.2172 85.3309 16.2211 85.3484 16.8762 85.5978C19.3432 86.5358 24.7958 86.9537 27.6082 86.4203ZM86.7308 83.0637V79.9922H82.0567H77.3824V69.4418V58.8915H73.2424H69.1025V72.5134V86.1354H77.9166H86.7308V83.0637ZM57.8843 29.2368C66.1113 28.6662 72.2782 27.5889 77.7049 25.7744C83.1112 23.9668 86.3048 21.7796 87.0192 19.3953C87.2944 18.4765 87.2747 18.128 86.8901 17.1206C85.1653 12.6045 75.5303 9.13466 60.8074 7.72784C54.5095 7.12594 43.056 7.32106 37.0511 8.13221C27.8885 9.37019 20.4526 11.6697 17.1463 14.2877C10.458 19.5839 17.5309 25.4091 33.9792 28.1508C41.1112 29.3397 50.3511 29.7595 57.8843 29.2368Z" fill="#4E36E9"/>
</svg>
